<svg width="32" height="32" viewBox="0 0 32 32" fill="none" xmlns="http://www.w3.org/2000/svg">
<path d="M10.3519 10.3519C10.6808 10.023 11.214 10.023 11.5428 10.3519L16 14.8091L20.4572 10.3519C20.786 10.023 21.3192 10.023 21.6481 10.3519C21.977 10.6808 21.977 11.214 21.6481 11.5428L17.1909 16L21.6481 20.4572C21.977 20.786 21.977 21.3192 21.6481 21.6481C21.3192 21.977 20.786 21.977 20.4572 21.6481L16 17.1909L11.5428 21.6481C11.214 21.977 10.6808 21.977 10.3519 21.6481C10.023 21.3192 10.023 20.786 10.3519 20.4572L14.8091 16L10.3519 11.5428C10.023 11.214 10.023 10.6808 10.3519 10.3519Z" fill="#A4A9B0"/>
<path fill-rule="evenodd" clip-rule="evenodd" d="M0 16C0 7.1665 7.1665 0 16 0C24.8335 0 32 7.1665 32 16C32 24.8335 24.8335 32 16 32C7.1665 32 0 24.8335 0 16ZM16 1.68421C8.09666 1.68421 1.68421 8.09666 1.68421 16C1.68421 23.9033 8.09666 30.3158 16 30.3158C23.9033 30.3158 30.3158 23.9033 30.3158 16C30.3158 8.09666 23.9033 1.68421 16 1.68421Z" fill="#A4A9B0"/>
</svg>
