<svg width="40" height="40" viewBox="0 0 40 40" fill="none" xmlns="http://www.w3.org/2000/svg">
<g clip-path="url(#clip0_2001_3561)">
<path d="M20 40C31.0457 40 40 31.0457 40 20C40 8.9543 31.0457 0 20 0C8.95431 0 0 8.9543 0 20C0 31.0457 8.95431 40 20 40Z" fill="black" stroke="white" stroke-width="0.0415515" stroke-miterlimit="10"/>
<path d="M7.67939 8.41211L17.2392 21.1942L7.61914 31.5866H9.78439L18.2069 22.4877L25.0118 31.5866H32.3797L22.2818 18.0857L31.2362 8.41211H29.071L21.3145 16.7918L15.0473 8.41211H7.67939ZM10.8635 10.0069H14.2483L29.1952 29.9919H25.8104L10.8635 10.0069Z" fill="white"/>
</g>
<defs>
<clipPath id="clip0_2001_3561">
<rect width="40" height="40" fill="white"/>
</clipPath>
</defs>
</svg>
