<?xml version="1.0" encoding="utf-8"?><svg viewBox="0 0 28 26" xmlns="http://www.w3.org/2000/svg" xmlns:xlink="http://www.w3.org/1999/xlink"><style>:root>svg{display:none}:root>svg:target{display:block}</style><svg viewBox="0 0 14 10" id="arrow-right" xmlns="http://www.w3.org/2000/svg"><path fill-rule="evenodd" clip-rule="evenodd" d="M0 5a.5.5 0 0 1 .5-.5h11.793L9.146 1.354a.5.5 0 1 1 .708-.708l4 4a.5.5 0 0 1 0 .708l-4 4a.5.5 0 1 1-.708-.708L12.293 5.5H.5A.5.5 0 0 1 0 5Z"/></svg><svg viewBox="0 0 12 7" id="chevron" xmlns="http://www.w3.org/2000/svg"><path d="M6 4.263 2.065.583a.963.963 0 0 0-1.296 0A.826.826 0 0 0 .5 1.19c0 .22.09.438.27.606l4.582 4.286a.962.962 0 0 0 1.297 0l4.582-4.286a.83.83 0 0 0 .268-.557.825.825 0 0 0-.268-.655.962.962 0 0 0-1.296 0L6 4.263Z"/></svg><svg viewBox="0 0 26 26" id="close" xmlns="http://www.w3.org/2000/svg"><path fill-rule="evenodd" clip-rule="evenodd" d="M13 .333C6.007.333.333 6.006.333 13c0 6.993 5.674 12.666 12.667 12.666 6.993 0 12.667-5.673 12.667-12.666C25.667 6.006 19.993.333 13 .333ZM8.967 7.889A.762.762 0 0 0 7.89 8.967L11.922 13 7.89 17.032a.762.762 0 0 0 1.077 1.078L13 14.077l4.033 4.033a.762.762 0 1 0 1.077-1.078L14.077 13l4.033-4.033a.762.762 0 0 0-1.077-1.078L13 11.922 8.967 7.89Z"/></svg><svg viewBox="0 0 20 19" id="favorite" xmlns="http://www.w3.org/2000/svg"><path fill-rule="evenodd" clip-rule="evenodd" d="M8.314 3.06a4.034 4.034 0 0 0-5.788 0 4.238 4.238 0 0 0 0 5.907l7.507 7.661 7.441-7.595a4.239 4.239 0 0 0 0-5.907 4.034 4.034 0 0 0-5.788 0l-.984 1.004a.933.933 0 0 1-1.339 0l-1.05-1.07Zm-6.727-.958a5.343 5.343 0 0 1 7.665 0l.78.796.715-.73a5.343 5.343 0 0 1 7.665 0c2.117 2.16 2.117 5.663 0 7.823l-7.899 8.062a.661.661 0 0 1-.957.005L1.587 9.925c-2.116-2.16-2.116-5.663 0-7.824Z"/></svg><svg viewBox="0 0 25 24" id="forum" xmlns="http://www.w3.org/2000/svg"><path d="m21.212 5-9-4-9 4v6c0 5.55 3.84 10.74 9 12 2.3-.56 4.33-1.9 5.88-3.71l-3.12-3.12a4.994 4.994 0 0 1-6.29-.64 5.003 5.003 0 0 1 0-7.07 5.003 5.003 0 0 1 7.07 0 5.006 5.006 0 0 1 .64 6.29l2.9 2.9c1.21-1.96 1.92-4.27 1.92-6.65V5Z"/><path d="M12.212 15a3 3 0 1 0 0-6 3 3 0 0 0 0 6Z"/></svg><svg viewBox="0 0 20 20" id="pro" xmlns="http://www.w3.org/2000/svg"><g clip-path="url(#fa)"><path d="m2.48 7.233.504.338-.504-.338a4.324 4.324 0 0 1-.289.356l-.056.066c-.38.445-.648.76-.811 1.1a2.886 2.886 0 0 0 0 2.49c.163.341.43.655.81 1.1l.057.067c.182.214.24.284.289.355.12.18.204.382.246.594.016.085.025.176.047.456l.007.087c.046.583.079.994.205 1.351.29.823.937 1.47 1.76 1.76.357.126.768.16 1.352.205l.087.007c.28.023.37.03.455.048.212.042.414.125.594.245.071.049.142.107.355.29l.067.056c.445.38.759.647 1.1.81a2.885 2.885 0 0 0 2.49 0c.341-.163.655-.43 1.1-.81l.067-.057c.213-.182.284-.24.355-.289.18-.12.382-.203.594-.245.084-.017.175-.025.455-.048l.087-.007c.584-.046.995-.079 1.352-.205a2.886 2.886 0 0 0 1.76-1.76c.126-.357.159-.768.205-1.351l.007-.087c.022-.28.03-.371.047-.456a1.65 1.65 0 0 1 .246-.594 4.6 4.6 0 0 1 .289-.355l.056-.066c.38-.446.648-.76.811-1.101a2.885 2.885 0 0 0 0-2.49c-.163-.34-.43-.655-.81-1.1l-.057-.066a4.307 4.307 0 0 1-.289-.356 1.635 1.635 0 0 1-.246-.594 4.308 4.308 0 0 1-.047-.455l-.007-.087c-.046-.583-.079-.995-.205-1.352a2.886 2.886 0 0 0-1.76-1.76c-.357-.126-.768-.158-1.352-.205l-.087-.007a4.32 4.32 0 0 1-.455-.047 1.635 1.635 0 0 1-.594-.246 4.312 4.312 0 0 1-.355-.288l-.067-.057c-.445-.38-.759-.648-1.1-.81a2.886 2.886 0 0 0-2.49 0c-.341.162-.655.43-1.1.81l-.067.057c-.213.182-.284.24-.355.288l.345.514-.345-.514a1.65 1.65 0 0 1-.594.246 4.323 4.323 0 0 1-.455.047l-.087.007c-.584.047-.995.08-1.352.205-.823.29-1.47.938-1.76 1.76-.126.357-.159.769-.205 1.352l-.007.087c-.022.28-.03.37-.047.455a1.636 1.636 0 0 1-.246.594Zm5.722 4.511.442.442.441-.442 4.042-4.042a.053.053 0 1 1 .076.076L8.68 12.299a.053.053 0 0 1-.075 0l-1.809-1.808a.053.053 0 1 1 .076-.076l1.329 1.33Z"/></g><defs><clipPath id="fa"><path d="M0 0h20v20H0z"/></clipPath></defs></svg><svg viewBox="0 0 28 25" id="search" xmlns="http://www.w3.org/2000/svg"><path fill-rule="evenodd" clip-rule="evenodd" d="M20.317 11.088a8.93 8.93 0 0 1-2.668 6.356 9.172 9.172 0 0 1-6.442 2.633 9.172 9.172 0 0 1-6.441-2.633 8.929 8.929 0 0 1-2.669-6.356c0-2.384.96-4.67 2.669-6.356a9.172 9.172 0 0 1 6.441-2.633c2.416 0 4.733.947 6.442 2.633a8.929 8.929 0 0 1 2.668 6.356ZM19.2 18.846a11.283 11.283 0 0 1-7.64 3.295 11.302 11.302 0 0 1-7.832-2.82 11.01 11.01 0 0 1-3.694-7.376 10.965 10.965 0 0 1 2.487-7.852A11.252 11.252 0 0 1 9.814.106a11.32 11.32 0 0 1 8.066 2.083 11.044 11.044 0 0 1 4.38 7.001 10.945 10.945 0 0 1-1.73 8.048l6.658 5.52a1.042 1.042 0 0 1-1.33 1.605L19.2 18.846Z"/></svg><svg viewBox="0 0 18 18" id="user" xmlns="http://www.w3.org/2000/svg"><path d="M9 .67C4.418.67.668 4.42.668 9.003c0 4.584 3.75 8.334 8.334 8.334 4.583 0 8.333-3.75 8.333-8.334 0-4.583-3.75-8.333-8.333-8.333Zm0 15c-3.666 0-6.666-3-6.666-6.667 0-3.666 3-6.666 6.667-6.666s6.667 3 6.667 6.666c0 3.667-3 6.667-6.667 6.667Z"/><path d="M13.584 11.837c-.583-.584-1.25-1-2-1.334.584-.666 1-1.5 1-2.5 0-2-1.583-3.583-3.583-3.583S5.418 6.003 5.418 8.003c0 1 .416 1.834 1 2.5-.75.334-1.417.75-2 1.334a.806.806 0 0 0 0 1.166.9.9 0 0 0 .583.25c.25 0 .417-.083.583-.25a4.72 4.72 0 0 1 3.417-1.416c1.25 0 2.5.5 3.417 1.416a.806.806 0 0 0 1.166 0 .806.806 0 0 0 0-1.166Zm-6.5-3.834c0-1.083.834-1.916 1.917-1.916 1.083 0 1.917.833 1.917 1.916A1.886 1.886 0 0 1 9 9.92a1.886 1.886 0 0 1-1.917-1.917Z"/></svg></svg>