<svg width="12" height="7" viewBox="0 0 12 7" fill="none" xmlns="http://www.w3.org/2000/svg">
<path d="M6.00001 4.26284L2.06535 0.583121C1.70735 0.248335 1.12694 0.248335 0.768712 0.583121C0.602946 0.737364 0.514126 0.936245 0.501545 1.13869C0.500515 1.15534 0.5 1.17201 0.5 1.18868C0.5 1.40817 0.589276 1.62746 0.770067 1.79548L5.35249 6.08075C5.71049 6.41553 6.2909 6.41553 6.6489 6.08075L11.2313 1.79548C11.3971 1.64054 11.4862 1.44104 11.4985 1.23821C11.5128 1.00286 11.4237 0.763028 11.2313 0.583123C10.8733 0.248337 10.2929 0.248336 9.9349 0.583123L6.00001 4.26284Z" fill="#1D1D1D"/>
</svg>
