<svg width="26" height="26" viewBox="0 0 26 26" fill="none" xmlns="http://www.w3.org/2000/svg">
<path fill-rule="evenodd" clip-rule="evenodd" d="M12.9999 0.333008C6.00673 0.333008 0.333252 6.00649 0.333252 12.9997C0.333252 19.9929 6.00673 25.6663 12.9999 25.6663C19.9931 25.6663 25.6666 19.9929 25.6666 12.9997C25.6666 6.00649 19.9931 0.333008 12.9999 0.333008ZM8.9672 7.88949C8.66966 7.59195 8.18724 7.59195 7.8897 7.88949C7.59216 8.18703 7.59216 8.66944 7.8897 8.96698L11.9224 12.9997L7.8897 17.0323C7.59216 17.3299 7.59216 17.8123 7.8897 18.1098C8.18724 18.4074 8.66966 18.4074 8.9672 18.1098L12.9999 14.0772L17.0326 18.1098C17.3301 18.4074 17.8125 18.4074 18.1101 18.1098C18.4076 17.8123 18.4076 17.3299 18.1101 17.0323L14.0774 12.9997L18.1101 8.96698C18.4076 8.66944 18.4076 8.18703 18.1101 7.88949C17.8125 7.59195 17.3301 7.59195 17.0326 7.88949L12.9999 11.9222L8.9672 7.88949Z" fill="#A4A9B0"/>
</svg>
