<svg width="20" height="19" viewBox="0 0 20 19" fill="none" xmlns="http://www.w3.org/2000/svg">
<path fill-rule="evenodd" clip-rule="evenodd" d="M8.31377 3.05968C6.71546 1.42834 4.12421 1.42834 2.52611 3.05968C0.927802 4.69081 0.927802 7.33581 2.52611 8.96694L10.0325 16.6284L17.4741 9.033C19.0722 7.40187 19.0722 4.75687 17.4741 3.12574C15.8758 1.4944 13.2846 1.4944 11.6864 3.12574L10.7024 4.13012C10.3326 4.50751 9.73318 4.50751 9.36345 4.13012L8.31377 3.05968ZM1.58712 2.1017C3.70372 -0.0586386 7.13561 -0.0586386 9.25225 2.1017L10.0321 2.89762L10.7473 2.16781C12.8639 0.00747305 16.2958 0.00747305 18.4124 2.16781C20.5291 4.32814 20.529 7.83095 18.4124 9.99134L10.5132 18.0533C10.4855 18.0815 10.4561 18.1067 10.4253 18.1289C10.1626 18.3237 9.79303 18.3001 9.55639 18.0585L1.58736 9.92484C-0.529241 7.76451 -0.529241 4.2617 1.58736 2.10131L1.58712 2.1017Z" fill="#B3C4DB"/>
</svg>
