<svg width="25" height="24" viewBox="0 0 25 24" fill="none" xmlns="http://www.w3.org/2000/svg">
<path d="M21.2124 5L12.2124 1L3.2124 5V11C3.2124 16.55 7.0524 21.74 12.2124 23C14.5124 22.44 16.5424 21.1 18.0924 19.29L14.9724 16.17C13.0324 17.46 10.3924 17.24 8.6824 15.53C6.7324 13.58 6.7324 10.41 8.6824 8.46C10.6324 6.51 13.8024 6.51 15.7524 8.46C17.4624 10.17 17.6724 12.81 16.3924 14.75L19.2924 17.65C20.5024 15.69 21.2124 13.38 21.2124 11V5Z" fill="white"/>
<path d="M12.2124 15C13.8693 15 15.2124 13.6569 15.2124 12C15.2124 10.3431 13.8693 9 12.2124 9C10.5555 9 9.2124 10.3431 9.2124 12C9.2124 13.6569 10.5555 15 12.2124 15Z" fill="white"/>
</svg>
