<svg width="28" height="25" viewBox="0 0 28 25" fill="none" xmlns="http://www.w3.org/2000/svg">
<path fill-rule="evenodd" clip-rule="evenodd" d="M20.317 11.0881C20.317 13.4721 19.3572 15.7585 17.6488 17.4442C15.9404 19.13 13.6233 20.077 11.2072 20.077C8.79118 20.077 6.47408 19.13 4.76567 17.4442C3.05726 15.7585 2.09749 13.4721 2.09749 11.0881C2.09749 8.70409 3.05726 6.41772 4.76567 4.73197C6.47408 3.04623 8.79118 2.09918 11.2072 2.09918C13.6233 2.09918 15.9404 3.04623 17.6488 4.73197C19.3572 6.41772 20.317 8.70409 20.317 11.0881ZM19.2 18.8462C17.1773 20.8726 14.4413 22.0525 11.5602 22.1408C8.67912 22.2291 5.87422 21.2192 3.72791 19.3206C1.5816 17.422 0.258789 14.7807 0.0341287 11.9451C-0.190532 9.10951 0.700222 6.29746 2.52144 4.09283C4.34266 1.88821 6.95442 0.460393 9.81443 0.105853C12.6744 -0.248686 15.563 0.497287 17.8803 2.18888C20.1975 3.88048 21.7655 6.38774 22.2587 9.19006C22.7519 11.9924 22.1323 14.8745 20.5286 17.2379L27.1872 22.7581C27.6344 23.1288 27.6922 23.7936 27.3157 24.236C26.9461 24.6704 26.296 24.727 25.8568 24.3631L19.2 18.8462Z" fill="#A4A9B0"/>
</svg>
