<svg width="18" height="18" viewBox="0 0 18 18" fill="none" xmlns="http://www.w3.org/2000/svg">
<path d="M9.00081 0.669922C4.41748 0.669922 0.66748 4.41992 0.66748 9.00326C0.66748 13.5866 4.41748 17.3366 9.00081 17.3366C13.5841 17.3366 17.3341 13.5866 17.3341 9.00326C17.3341 4.41992 13.5841 0.669922 9.00081 0.669922ZM9.00081 15.6699C5.33415 15.6699 2.33415 12.6699 2.33415 9.00326C2.33415 5.33659 5.33415 2.33659 9.00081 2.33659C12.6675 2.33659 15.6675 5.33659 15.6675 9.00326C15.6675 12.6699 12.6675 15.6699 9.00081 15.6699Z" fill="#1D1D1D"/>
<path d="M13.5843 11.8366C13.001 11.2533 12.3343 10.8366 11.5843 10.5033C12.1676 9.83659 12.5843 9.00326 12.5843 8.00326C12.5843 6.00326 11.001 4.41992 9.00098 4.41992C7.00098 4.41992 5.41764 6.00326 5.41764 8.00326C5.41764 9.00326 5.83431 9.83659 6.41764 10.5033C5.66764 10.8366 5.00098 11.2533 4.41764 11.8366C4.08431 12.1699 4.08431 12.6699 4.41764 13.0033C4.58431 13.1699 4.83431 13.2533 5.00098 13.2533C5.25098 13.2533 5.41764 13.1699 5.58431 13.0033C6.50098 12.0866 7.66764 11.5866 9.00098 11.5866C10.251 11.5866 11.501 12.0866 12.4176 13.0033C12.751 13.3366 13.251 13.3366 13.5843 13.0033C13.9176 12.6699 13.9176 12.1699 13.5843 11.8366ZM7.08431 8.00326C7.08431 6.91992 7.91764 6.08659 9.00098 6.08659C10.0843 6.08659 10.9176 6.91992 10.9176 8.00326C10.9176 9.08659 10.0843 9.91992 9.00098 9.91992C7.91764 9.91992 7.08431 9.08659 7.08431 8.00326Z" fill="#1D1D1D"/>
</svg>
