<svg width="312" height="152" viewBox="0 0 312 152" fill="none" xmlns="http://www.w3.org/2000/svg">
<path d="M83.5838 93.1V101.444H86.6918C87.1118 95.956 92.0958 92.12 98.5638 92.12C105.284 92.12 110.464 96.32 110.464 102.2C110.464 107.996 104.864 112.308 98.5638 112.308C92.5438 112.308 86.6638 108.696 86.6638 102.144H83.5838V111.3L85.5438 111.58V112H75.1838V111.58L77.1438 111.3V93.1L75.1838 92.82V92.4H85.5438V92.82L83.5838 93.1ZM100.216 111.524C102.904 111.524 104.416 108.752 104.416 105.336C104.416 101.08 102.064 92.904 96.9118 92.904C94.2238 92.904 92.7118 95.676 92.7118 99.092C92.7118 103.348 95.0638 111.524 100.216 111.524ZM120.273 105.196V111.3L122.233 111.58V112H111.873V111.58L113.833 111.3V93.1L111.873 92.82V92.4H124.585C130.465 92.4 134.049 94.304 134.049 98.784C134.049 103.432 129.625 105.196 124.865 105.196H120.273ZM123.409 93.1H120.273V104.496H123.409C126.461 104.496 127.609 101.976 127.609 98.784C127.609 96.124 126.461 93.1 123.409 93.1ZM155.021 105.896L155.441 105.924C155.133 108.5 153.481 112.336 146.341 112.336C139.929 112.336 134.581 108.78 134.581 102.2C134.581 95.2 140.657 92.12 146.565 92.12C149.141 92.12 152.445 92.428 155.245 93.1L154.965 101.22H154.545C153.621 97.44 150.485 92.596 146.537 92.596C142.785 92.596 141.273 96.404 141.273 99.652C141.273 107.576 145.921 111.104 149.113 111.104C152.557 111.104 154.685 108.388 155.021 105.896ZM166.849 92.4H169.929L178.049 111.3L180.009 111.58V112H168.753V111.58L170.965 111.3L168.641 105.84H161.921L159.597 111.3L161.809 111.58V112H156.853V111.58L158.813 111.3L166.849 92.4ZM162.229 105.14H168.333L165.281 98.028L162.229 105.14ZM192.642 89.292H195.05L198.186 85.008H198.97L197.85 89.992H189.842L188.722 85.008H189.506L192.642 89.292ZM198.018 111.3V94.836L189.562 111.3H189.534L191.494 111.58V112H181.134V111.58L183.094 111.3V93.1L181.134 92.82V92.4H191.494V92.82L189.534 93.1V109.76L198.018 93.156V93.1L196.058 92.82V92.4H206.418V92.82L204.458 93.1V111.3L206.418 111.58V112H196.058V111.58L198.018 111.3ZM225.328 93.1H221.548V111.3L223.508 111.58V112H213.148V111.58L215.108 111.3V93.1H211.328L207.968 100.38H207.548V92.4H229.108V100.38H228.688L225.328 93.1Z" fill="#1D1D1D"/>
<g clip-path="url(#clip0_2001_49)">
<path fill-rule="evenodd" clip-rule="evenodd" d="M145.332 83.9661C145.315 79.0901 145.29 72.002 145.273 67.126C145.261 63.5139 145.251 59.9016 145.239 56.2895C145.223 51.607 145.207 46.9238 145.19 42.2415C145.184 40.5426 145.177 38.8435 145.17 37.1446C145.17 37.0754 145.17 37.0063 145.17 36.9374C145.171 36.8737 145.189 36.8582 145.26 36.8564C145.288 36.8558 145.315 36.856 145.343 36.8558C147.422 36.8458 149.502 36.8359 151.581 36.8262C151.636 36.826 151.691 36.8275 151.746 36.8292C151.772 36.8301 151.797 36.8558 151.798 36.8832C151.8 36.9245 151.802 36.9659 151.802 37.0072C151.804 37.6633 151.805 38.3195 151.807 38.9757C151.825 43.9484 151.843 48.9212 151.859 53.8938C151.872 57.499 151.881 61.1044 151.894 64.7096C151.909 69.2748 151.925 77.9328 151.941 82.498H154.483C154.478 78.0432 154.472 72.7661 154.468 68.3113C154.464 63.3039 154.461 58.2966 154.458 53.2893C154.455 47.9504 154.453 42.6115 154.451 37.2728C154.451 37.1899 154.451 37.1072 154.452 37.0242C154.452 36.9608 154.47 36.9454 154.542 36.9441C154.576 36.9435 154.611 36.9439 154.645 36.9439C156.718 36.9426 158.79 36.9415 160.863 36.9407C160.925 36.9407 160.987 36.943 161.049 36.9476C161.059 36.9482 161.075 36.964 161.077 36.9746C161.082 37.0085 161.082 37.0433 161.082 37.0776C161.083 37.4504 161.083 37.8238 161.083 38.1964C161.087 45.6348 161.089 53.0733 161.095 60.5117C161.1 67.5979 161.109 76.8951 161.116 83.9813L145.332 83.9661ZM148.003 49.664H148.009C148.011 49.9454 148.013 50.2268 148.014 50.5082C148.015 50.6359 148.016 50.7646 148.016 50.8923C148.021 51.7118 148.026 52.5312 148.031 53.3506C148.035 53.8926 148.04 54.4346 148.045 54.9765C148.05 55.5185 148.054 56.0604 148.058 56.6024C148.062 57.1856 148.065 57.7689 148.068 58.3522C148.071 58.8667 148.073 59.3812 148.077 59.8957C148.079 60.2819 148.083 60.6681 148.087 61.0541C148.089 61.2342 148.091 61.4142 148.093 61.5942L148.093 61.6167L148.093 61.6181C148.093 61.6653 148.094 61.7126 148.093 61.7599C148.093 61.796 148.066 61.8221 148.026 61.8225C147.784 61.8251 147.542 61.8268 147.301 61.8281C147.266 61.8284 147.242 61.8001 147.241 61.7595C147.24 61.7182 147.24 61.6768 147.24 61.6353C147.24 61.6318 147.24 61.6283 147.24 61.6247L147.24 61.6236C147.24 61.6206 147.24 61.6176 147.24 61.6145C147.238 61.359 147.237 61.1034 147.235 60.8478C147.233 60.337 147.23 59.8261 147.227 59.3154C147.218 58.1307 147.21 56.946 147.201 55.7612C147.196 54.9714 147.19 54.1815 147.184 53.3916C147.18 52.7623 147.175 52.1329 147.171 51.5035C147.164 50.4551 147.157 49.4068 147.148 48.3584C147.145 47.8919 147.14 47.4255 147.135 46.959C147.13 46.4519 147.125 45.9449 147.121 45.4379C147.117 44.8505 147.114 44.263 147.111 43.6756C147.108 43.1721 147.106 42.6687 147.102 42.1653C147.096 41.2688 147.09 40.3723 147.083 39.4758C147.079 38.9155 147.074 38.3552 147.07 37.7949C147.068 37.5355 147.07 37.5232 147.096 37.5147C147.157 37.4946 147.22 37.4965 147.283 37.4983C147.309 37.499 147.336 37.4998 147.362 37.499C147.499 37.4945 147.636 37.4933 147.773 37.4921C147.781 37.492 147.789 37.4919 147.797 37.4919C147.824 37.4916 147.851 37.4944 147.878 37.5007C147.888 37.5033 147.903 37.5176 147.904 37.5279C147.911 37.5754 147.915 37.6234 147.916 37.6713C147.921 38.3588 147.926 39.0462 147.931 39.7337C147.938 40.6963 147.944 41.659 147.952 42.6217C147.955 43.007 147.959 43.3923 147.963 43.7777C147.967 44.2209 147.972 44.664 147.975 45.1072C147.98 45.8107 147.983 46.514 147.987 47.2175C147.989 47.6394 147.991 48.0614 147.994 48.4834C147.995 48.7588 147.998 49.0341 148 49.3095C148.001 49.4276 148.002 49.5458 148.003 49.664ZM155.172 61.9301C155.148 61.9302 155.125 61.9279 155.103 61.9257C155.094 61.9249 155.086 61.924 155.078 61.9234C155.05 61.8822 155.051 61.8423 155.052 61.8038C155.053 61.794 155.053 61.7844 155.053 61.7748L155.053 61.7732C155.047 61.2834 155.042 60.7937 155.039 60.3039C155.036 59.7547 155.033 59.2054 155.03 58.6561L155.03 58.6539C155.029 58.5664 155.029 58.4785 155.028 58.391C155.025 57.7787 155.022 57.1663 155.018 56.5541C155.009 55.2705 155 53.987 154.991 52.7035L154.991 52.7023L154.991 52.7011L154.991 52.6999C154.986 52.0579 154.981 51.4159 154.977 50.7739C154.963 48.8679 154.949 46.962 154.935 45.056C154.933 44.677 154.93 44.298 154.927 43.919C154.916 42.3782 154.905 40.8375 154.893 39.2966C154.891 38.9696 154.887 38.6421 154.883 38.3151C154.881 38.1312 154.879 37.9474 154.877 37.7636C154.876 37.7223 154.877 37.6808 154.881 37.6398C154.882 37.6288 154.896 37.6165 154.908 37.6102C154.919 37.6037 154.934 37.6014 154.948 37.6014C155.182 37.5994 155.417 37.5977 155.652 37.5972C155.715 37.597 155.732 37.6173 155.733 37.6877C155.734 37.7239 155.734 37.7602 155.734 37.7964C155.734 37.8035 155.734 37.8106 155.734 37.8177L155.734 37.8232C155.734 37.8264 155.734 37.8295 155.734 37.8327C155.736 38.1881 155.738 38.5436 155.74 38.899C155.743 39.5585 155.746 40.2188 155.751 40.8782C155.76 42.1864 155.769 43.4947 155.779 44.8029L155.779 44.8045L155.779 44.8061L155.779 44.8076C155.784 45.4591 155.788 46.1105 155.793 46.7618C155.797 47.3189 155.801 47.8759 155.805 48.433C155.812 49.5471 155.82 50.6612 155.829 51.7754C155.832 52.2347 155.837 52.6939 155.842 53.153C155.847 53.6538 155.852 54.1544 155.856 54.6551C155.86 55.2219 155.863 55.7886 155.865 56.3554C155.868 56.8729 155.871 57.3904 155.874 57.9078C155.88 58.6971 155.886 59.4862 155.893 60.2754L155.893 60.2778L155.893 60.2789L155.893 60.2801C155.894 60.4809 155.896 60.6817 155.898 60.8825C155.9 61.1409 155.902 61.3993 155.904 61.6577C155.904 61.7268 155.903 61.796 155.902 61.8649C155.901 61.9037 155.878 61.9234 155.835 61.9251C155.821 61.9258 155.807 61.9262 155.794 61.9262C155.759 61.9264 155.724 61.9267 155.69 61.927C155.518 61.9282 155.345 61.9295 155.172 61.9301ZM158.534 61.9312C158.51 61.9312 158.486 61.9292 158.464 61.9274C158.454 61.9267 158.445 61.9259 158.435 61.9253C158.407 61.887 158.408 61.847 158.409 61.8079C158.41 61.7987 158.41 61.7896 158.41 61.7806C158.409 61.7065 158.408 61.6324 158.407 61.5583C158.403 61.149 158.399 60.7398 158.396 60.3305C158.393 59.7949 158.39 59.2592 158.387 58.7236L158.387 58.721C158.387 58.6764 158.387 58.6314 158.387 58.5868C158.383 57.9181 158.38 57.2493 158.375 56.5806C158.367 55.3816 158.358 54.1825 158.35 52.9834C158.344 52.2627 158.339 51.542 158.334 50.8212C158.33 50.2179 158.325 49.614 158.321 49.0107L158.321 49.0095L158.321 49.0083C158.314 47.9207 158.306 46.8331 158.298 45.7454C158.294 45.2852 158.29 44.825 158.285 44.3648L158.285 44.3633C158.28 43.8641 158.275 43.3649 158.271 42.8657C158.267 42.2471 158.263 41.6285 158.26 41.0098V41.0086C158.26 40.9436 158.259 40.8782 158.259 40.8132C158.257 40.3579 158.254 39.9027 158.251 39.4474C158.249 39.0909 158.245 38.7345 158.241 38.3781C158.238 38.182 158.236 37.986 158.234 37.7899C158.233 37.752 158.234 37.714 158.235 37.6762L158.235 37.675L158.235 37.6739C158.236 37.6695 158.236 37.6651 158.236 37.6608C158.236 37.6555 158.236 37.6502 158.236 37.645C158.236 37.6327 158.266 37.6072 158.28 37.6063C158.283 37.6061 158.286 37.6052 158.289 37.6043C158.293 37.6032 158.296 37.6022 158.3 37.6022C158.542 37.6009 158.783 37.5998 159.025 37.5994C159.063 37.5994 159.087 37.6253 159.089 37.664C159.09 37.6847 159.091 37.7055 159.091 37.7262C159.091 37.7677 159.091 37.8091 159.092 37.8506C159.093 38.1921 159.095 38.5342 159.097 38.8757L159.097 38.8768L159.097 38.878L159.097 38.8791L159.097 38.8809C159.1 39.5665 159.104 40.2521 159.108 40.9376C159.118 42.3061 159.128 43.6745 159.138 45.0429C159.142 45.6288 159.146 46.2148 159.15 46.8007C159.155 47.4294 159.159 48.0588 159.164 48.6875L159.164 48.6888C159.171 49.7375 159.178 50.7862 159.186 51.835C159.19 52.3185 159.195 52.802 159.2 53.2854C159.205 53.7895 159.21 54.2936 159.214 54.7977C159.218 55.3454 159.22 55.893 159.223 56.4407C159.226 56.9634 159.228 57.4862 159.232 58.0089C159.238 58.8322 159.245 59.6561 159.252 60.4793C159.255 60.8229 159.258 61.1666 159.261 61.5102C159.261 61.5722 159.262 61.6344 159.261 61.6966C159.261 61.7289 159.261 61.7568 159.262 61.7807C159.262 61.8546 159.263 61.8916 159.244 61.9102C159.226 61.9288 159.189 61.9287 159.114 61.9286C159.09 61.9285 159.063 61.9285 159.032 61.929C158.892 61.9314 158.752 61.9313 158.613 61.9312C158.586 61.9312 158.56 61.9312 158.534 61.9312ZM150.428 37.5765C150.429 37.5632 150.433 37.55 150.438 37.5366C150.44 37.5305 150.442 37.5243 150.444 37.518C150.451 37.517 150.458 37.5158 150.464 37.5147C150.479 37.5121 150.493 37.5096 150.507 37.5098C150.714 37.5059 150.921 37.5026 151.129 37.4996C151.156 37.4992 151.184 37.5001 151.211 37.5011C151.239 37.5022 151.267 37.526 151.268 37.5508C151.27 37.599 151.273 37.6472 151.273 37.6953C151.277 38.262 151.281 38.8288 151.285 39.3955C151.293 40.5271 151.301 41.6588 151.31 42.7903C151.313 43.1639 151.317 43.5375 151.321 43.9111C151.325 44.3383 151.33 44.7655 151.333 45.1927C151.337 45.7415 151.34 46.2904 151.342 46.8393C151.345 47.3881 151.348 47.937 151.352 48.4858C151.354 48.8931 151.359 49.3004 151.363 49.7077C151.367 50.115 151.372 50.5223 151.374 50.9296C151.378 51.4678 151.381 52.006 151.383 52.5442C151.386 53.1106 151.389 53.6771 151.393 54.2435C151.396 54.6508 151.4 55.0581 151.404 55.4654C151.409 55.8727 151.413 56.28 151.416 56.6873C151.42 57.3245 151.423 57.9619 151.427 58.5991C151.429 59.0664 151.432 59.5338 151.434 60.0011C151.436 60.2938 151.439 60.5867 151.442 60.8793C151.444 61.0146 151.445 61.1498 151.446 61.2852C151.447 61.3265 151.447 61.3678 151.448 61.4091C151.449 61.5059 151.45 61.6027 151.45 61.6994C151.45 61.8188 151.442 61.8275 151.322 61.8296C151.142 61.8327 150.963 61.8353 150.783 61.8374C150.742 61.8379 150.7 61.8368 150.659 61.8355C150.624 61.8344 150.599 61.8061 150.598 61.7674C150.597 61.733 150.597 61.6985 150.597 61.6639C150.597 61.657 150.597 61.6501 150.597 61.6433C150.595 61.3925 150.594 61.1419 150.593 60.8912C150.59 60.3893 150.587 59.8874 150.584 59.3856C150.575 58.0735 150.565 56.7614 150.556 55.4494C150.551 54.7938 150.546 54.1383 150.542 53.4828C150.537 52.8536 150.533 52.2245 150.528 51.5953C150.521 50.5468 150.514 49.4983 150.506 48.4499C150.502 47.979 150.497 47.508 150.493 47.0369C150.487 46.5208 150.482 46.0046 150.478 45.4884C150.475 44.9475 150.472 44.4066 150.469 43.8658C150.467 43.3986 150.465 42.9315 150.462 42.4644C150.454 41.3196 150.446 40.1747 150.437 39.0299C150.434 38.6007 150.43 38.1714 150.427 37.7422C150.427 37.7324 150.427 37.7227 150.427 37.7129C150.427 37.6674 150.427 37.6219 150.428 37.5765ZM149.982 61.5815C149.982 61.5988 149.982 61.6161 149.983 61.6334C149.984 61.6914 149.985 61.7495 149.976 61.8068C149.967 61.8092 149.958 61.8118 149.95 61.8143C149.935 61.8189 149.922 61.8228 149.909 61.823C149.674 61.826 149.439 61.8279 149.205 61.8294C149.168 61.8296 149.141 61.8024 149.139 61.7653C149.139 61.7515 149.138 61.7376 149.138 61.7238C149.138 61.6754 149.137 61.6273 149.137 61.5789C149.134 61.1982 149.131 60.8174 149.128 60.4367L149.128 60.4356C149.119 59.2978 149.11 58.16 149.101 57.0223C149.098 56.5739 149.094 56.1253 149.09 55.6769C149.084 55.0415 149.078 54.406 149.074 53.7707C149.07 53.2392 149.068 52.7073 149.065 52.1759C149.062 51.6444 149.06 51.1125 149.056 50.5811C149.053 50.1565 149.049 49.7318 149.044 49.3073C149.04 48.8828 149.035 48.4581 149.032 48.0335C149.029 47.502 149.026 46.9702 149.023 46.4387C149.021 45.9073 149.018 45.3754 149.015 44.8439C149.011 44.4193 149.007 43.9947 149.003 43.5701C148.998 43.1456 148.994 42.721 148.991 42.2964C148.987 41.665 148.983 41.0336 148.98 40.4023C148.978 39.9567 148.976 39.511 148.973 39.0653C148.971 38.7922 148.969 38.5192 148.966 38.2461C148.964 38.0705 148.962 37.8948 148.961 37.7191C148.96 37.6686 148.962 37.6181 148.963 37.5676C148.963 37.563 148.964 37.5584 148.964 37.5538C148.965 37.5294 148.992 37.5035 149.019 37.5031C149.261 37.4992 149.502 37.4957 149.744 37.4929C149.783 37.4925 149.808 37.5178 149.81 37.5558C149.81 37.5696 149.811 37.5834 149.811 37.5972C149.811 37.6138 149.811 37.6304 149.811 37.647C149.811 37.6581 149.811 37.6691 149.811 37.6802C149.814 38.0813 149.817 38.4825 149.819 38.8836C149.833 40.8851 149.846 42.8865 149.86 44.888C149.869 46.1719 149.879 47.4558 149.888 48.7397C149.888 48.7579 149.889 48.7769 149.889 48.7951L149.889 48.797C149.891 49.0455 149.892 49.2941 149.894 49.5427C149.899 50.1313 149.903 50.7199 149.907 51.3085C149.913 52.0768 149.918 52.8452 149.924 53.6135C149.925 53.7907 149.926 53.9687 149.928 54.146C149.934 55.0917 149.941 56.0377 149.948 56.9834C149.959 58.5163 149.971 60.0489 149.982 61.5815ZM146.544 49.6517H146.536C146.546 50.6942 146.558 51.7368 146.566 52.7787C146.574 53.8487 146.577 54.9188 146.584 55.989C146.591 56.8659 146.602 57.7426 146.609 58.6195C146.616 59.6413 146.62 60.6631 146.625 61.6849C146.625 61.7191 146.623 61.7534 146.617 61.7869C146.615 61.7973 146.6 61.8085 146.589 61.8134C146.577 61.8186 146.562 61.8178 146.548 61.818C146.32 61.821 146.092 61.824 145.864 61.8264C145.801 61.8271 145.783 61.8072 145.781 61.7383C145.78 61.7106 145.78 61.683 145.78 61.6553C145.776 61.2687 145.77 60.8821 145.767 60.4955C145.757 59.0664 145.75 57.6372 145.74 56.208C145.734 55.3798 145.722 54.5512 145.716 53.7227C145.709 52.6666 145.706 51.6102 145.698 50.5538C145.692 49.7046 145.681 48.8556 145.675 48.0063C145.667 46.9361 145.664 45.8659 145.657 44.7957C145.651 43.9465 145.639 43.0975 145.633 42.2482C145.626 41.1711 145.622 40.0942 145.615 39.0171C145.613 38.5823 145.607 38.1474 145.604 37.7124C145.603 37.6573 145.603 37.602 145.609 37.5474C145.611 37.5314 145.631 37.515 145.646 37.5037C145.656 37.4966 145.673 37.4972 145.686 37.497C145.921 37.4944 146.156 37.4919 146.391 37.4901C146.427 37.4897 146.451 37.5165 146.453 37.5558C146.453 37.5696 146.453 37.5834 146.454 37.5972C146.454 37.618 146.454 37.6387 146.454 37.6595C146.465 39.1301 146.478 40.6005 146.489 42.0711C146.496 43.1411 146.499 44.2113 146.507 45.2815C146.518 46.7383 146.532 48.1949 146.544 49.6517ZM157.266 47.1571C157.27 47.758 157.273 48.3591 157.276 49.0244C157.276 49.0266 157.276 49.0288 157.276 49.0311C157.277 49.3192 157.278 49.6195 157.28 49.937C157.281 50.1063 157.283 50.2916 157.286 50.4882C157.291 50.969 157.297 51.5177 157.301 52.0664C157.305 52.6294 157.308 53.1924 157.311 53.7554C157.314 54.2902 157.316 54.8251 157.32 55.3599C157.323 55.7594 157.327 56.1589 157.331 56.5584C157.335 56.9736 157.34 57.389 157.343 57.8042C157.348 58.5849 157.352 59.3656 157.356 60.1463L157.356 60.1484C157.358 60.5132 157.36 60.878 157.362 61.2428C157.362 61.329 157.363 61.4159 157.364 61.502C157.364 61.5396 157.364 61.578 157.365 61.6156C157.365 61.664 157.365 61.7124 157.366 61.7608C157.366 61.7877 157.364 61.8147 157.363 61.8416C157.363 61.8488 157.362 61.856 157.362 61.8632C157.362 61.8703 157.361 61.8774 157.361 61.8845C157.36 61.8981 157.334 61.9245 157.32 61.9253C157.313 61.926 157.307 61.9266 157.3 61.9266C157.275 61.9267 157.25 61.9269 157.225 61.927C157.21 61.927 157.195 61.9271 157.18 61.9272C157.14 61.9274 157.1 61.9276 157.06 61.9277C156.898 61.9285 156.736 61.9293 156.575 61.9299C156.546 61.9299 156.523 61.9072 156.522 61.88C156.521 61.8247 156.52 61.7696 156.52 61.7143L156.519 61.5416C156.502 59.2378 156.486 56.9339 156.469 54.6301C156.456 52.7434 156.442 50.8565 156.428 48.9698C156.428 48.9602 156.428 48.9506 156.428 48.941L156.428 48.913C156.414 47.0345 156.401 45.1558 156.387 43.2773L156.387 43.2744L156.387 43.2714L156.387 43.2685L156.387 43.2656L156.387 43.2621L156.386 43.1545C156.374 41.3838 156.361 39.6131 156.348 37.8425L156.348 37.8102C156.347 37.7757 156.347 37.7411 156.347 37.7065C156.348 37.6089 156.354 37.602 156.453 37.6016C156.681 37.6005 156.908 37.6003 157.136 37.6001C157.165 37.6001 157.189 37.6225 157.19 37.6493C157.191 37.6977 157.192 37.7458 157.193 37.7942C157.198 38.4458 157.202 39.0974 157.207 39.749C157.207 39.7515 157.207 39.754 157.207 39.7565L157.207 39.7578L157.207 39.759L157.207 39.7603C157.217 41.2178 157.227 42.6753 157.238 44.1327C157.242 44.6256 157.247 45.1184 157.252 45.6113C157.257 46.1265 157.262 46.6418 157.266 47.1571ZM159.704 37.8156C159.704 37.7747 159.704 37.7333 159.704 37.6918C159.704 37.6708 159.704 37.6496 159.704 37.6284C159.712 37.6254 159.719 37.6221 159.726 37.619C159.74 37.6124 159.752 37.6065 159.765 37.6068C160.007 37.6046 160.248 37.6042 160.49 37.6037C160.529 37.6037 160.548 37.626 160.549 37.6705C160.55 37.7106 160.55 37.751 160.55 37.7913C160.55 37.7993 160.55 37.8074 160.55 37.8154C160.55 37.9004 160.551 37.9854 160.551 38.0704C160.552 38.2615 160.552 38.453 160.555 38.6441C160.575 40.1492 160.583 41.6545 160.59 43.1596C160.592 43.4981 160.593 43.8367 160.595 44.1752C160.597 44.5876 160.602 45.0001 160.607 45.4124C160.611 45.7526 160.615 46.0928 160.617 46.4331C160.621 46.9961 160.624 47.5592 160.627 48.1223C160.63 48.6571 160.632 49.192 160.636 49.7268C160.639 50.1306 160.643 50.5345 160.647 50.9383C160.651 51.3423 160.656 51.7463 160.658 52.1504C160.662 52.7098 160.665 53.2694 160.668 53.8289C160.671 54.3604 160.673 54.8919 160.677 55.4234C160.68 55.8261 160.684 56.2289 160.688 56.6317C160.693 57.0506 160.697 57.4695 160.7 57.8884C160.706 58.7528 160.71 59.6172 160.714 60.4817L160.714 60.4837C160.716 60.7925 160.717 61.1012 160.719 61.41C160.719 61.5255 160.719 61.6413 160.719 61.758C160.719 61.8084 160.719 61.859 160.719 61.91C160.713 61.9122 160.707 61.915 160.701 61.9178C160.688 61.9236 160.675 61.9293 160.663 61.9294C160.421 61.9312 160.179 61.9316 159.938 61.9316C159.896 61.9316 159.88 61.9122 159.878 61.8664C159.878 61.8456 159.878 61.8249 159.877 61.8042C159.875 61.4461 159.872 61.087 159.87 60.7289L159.87 60.7279L159.87 60.7269L159.869 60.7063L159.827 54.7402L159.785 49.002L159.744 43.2638L159.704 37.8156Z" fill="#1D1D1D"/>
<path d="M136.398 24.032C136.411 24.0275 136.424 24.0186 136.437 24.0186C144.166 24.0171 151.896 24.0163 159.625 24.0156C159.679 24.0156 159.733 24.0184 159.786 24.0199C159.788 24.0435 159.78 24.0498 159.765 24.0545C159.594 24.1072 159.423 24.1595 159.253 24.2145C157.993 24.6225 156.849 25.2454 155.816 26.0718C154.731 26.94 153.843 27.9783 153.151 29.1839C153.111 29.2549 153.078 29.3318 153.015 29.3895C152.99 29.4113 152.978 29.4476 152.964 29.4791C152.811 29.8256 152.657 30.172 152.505 30.5193C152.481 30.5755 152.455 30.6316 152.459 30.6979C152.461 30.7299 152.441 30.7634 152.43 30.796C152.285 31.2491 152.16 31.7078 152.064 32.1742C152.008 32.451 151.96 32.7297 151.917 33.0094C151.873 33.2962 151.841 33.5841 151.812 33.8722C151.784 34.1467 151.774 34.4232 151.755 34.6986C151.753 34.7396 151.749 34.7809 151.743 34.8215C151.741 34.832 151.725 34.8426 151.714 34.8487C151.702 34.8549 151.688 34.8577 151.674 34.8582C151.619 34.8595 151.564 34.8595 151.509 34.8595C149.457 34.8595 147.406 34.8597 145.354 34.8593C145.082 34.8593 145.128 34.8854 145.101 34.6342C145.097 34.5863 145.094 34.5379 145.092 34.4895C145.079 34.1789 145.046 33.8703 145.011 33.5614C144.96 33.1085 144.889 32.6593 144.794 32.2137C144.582 31.2109 144.258 30.2469 143.784 29.3355C143.119 28.0558 142.197 27.0009 141.02 26.1675C140.286 25.6469 139.495 25.2286 138.664 24.8878C138.001 24.6163 137.322 24.3914 136.627 24.2154C136.573 24.2018 136.52 24.1878 136.467 24.1737C136.401 24.1562 136.386 24.1325 136.392 24.0513C136.393 24.0448 136.396 24.0385 136.398 24.032Z" fill="#1D1D1D"/>
<path d="M154.414 34.9437C154.406 34.9266 154.393 34.9093 154.389 34.8906C154.383 34.8569 154.379 34.8221 154.379 34.7877C154.376 34.5113 154.346 34.2366 154.323 33.9614C154.308 33.7828 154.279 33.6055 154.259 33.4273C154.236 33.2214 154.202 33.0175 154.167 32.8134C154.057 32.1668 153.899 31.532 153.689 30.9106C153.601 30.6495 153.504 30.3914 153.393 30.1389C153.368 30.0823 153.376 30.0363 153.404 29.983C153.707 29.4078 154.057 28.8631 154.457 28.3508C155.582 26.9113 156.972 25.8039 158.628 25.0318C159.285 24.7255 159.967 24.4903 160.669 24.3167C161.017 24.2309 161.369 24.1649 161.724 24.115C161.765 24.1091 161.807 24.1085 161.848 24.108C161.931 24.107 162.014 24.1076 162.097 24.1076C164.521 24.1076 166.945 24.1076 169.369 24.1078C169.438 24.1078 169.507 24.11 169.576 24.1122C169.6 24.1128 169.621 24.1409 169.623 24.1711C169.626 24.2255 169.612 24.248 169.563 24.2618C169.317 24.3305 169.071 24.3953 168.827 24.4679C167.961 24.7258 167.12 25.0476 166.318 25.4659C165.655 25.8115 165.033 26.2169 164.46 26.6985C163.739 27.3039 163.139 28.0104 162.654 28.8163C162.211 29.5528 161.876 30.3361 161.625 31.1566C161.471 31.6582 161.352 32.1683 161.261 32.6843C161.202 33.0169 161.154 33.3517 161.119 33.6882C161.079 34.0728 161.043 34.4575 161.032 34.8441C161.032 34.8646 161.03 34.886 161.024 34.9055C161.018 34.9242 161.008 34.9435 160.984 34.9469C160.97 34.9489 160.957 34.9523 160.943 34.9525C160.888 34.9534 160.832 34.9532 160.777 34.9532C158.733 34.9532 156.689 34.9534 154.644 34.9528C154.568 34.9525 154.492 34.9614 154.414 34.9437Z" fill="#1D1D1D"/>
<path d="M148.458 36.3053C147.422 36.3092 146.387 36.3129 145.352 36.3165C145.296 36.3168 145.241 36.3159 145.186 36.3144C145.151 36.3135 145.125 36.2857 145.125 36.2468C145.124 35.9984 145.124 35.75 145.124 35.5016C145.124 35.4727 145.147 35.4481 145.172 35.4463C145.186 35.4455 145.2 35.4435 145.213 35.4433C145.241 35.4427 145.269 35.4429 145.296 35.4427C147.374 35.4325 149.452 35.4224 151.529 35.4122C151.598 35.4118 151.667 35.4127 151.736 35.4142C151.773 35.4148 151.797 35.4403 151.797 35.4809C151.798 35.7293 151.798 35.9777 151.798 36.226C151.798 36.255 151.776 36.28 151.75 36.2807C151.688 36.2824 151.626 36.2844 151.564 36.2846C150.528 36.2902 149.493 36.2958 148.458 36.3012C148.458 36.3027 148.458 36.304 148.458 36.3053Z" fill="#1D1D1D"/>
<path d="M157.725 36.4066C156.697 36.4066 155.668 36.4066 154.64 36.4066C154.577 36.4066 154.515 36.4055 154.453 36.4045C154.426 36.4038 154.406 36.3805 154.406 36.35C154.405 36.0947 154.406 35.8397 154.406 35.5844C154.406 35.5708 154.431 35.5403 154.443 35.5395C154.456 35.5384 154.47 35.5369 154.484 35.5366C154.532 35.5362 154.58 35.5362 154.629 35.536C156.693 35.5276 158.757 35.5192 160.821 35.5107C161.116 35.5094 161.075 35.4868 161.078 35.7604C161.08 35.9261 161.079 36.0917 161.08 36.2574C161.08 36.2781 161.08 36.2989 161.079 36.3196C161.078 36.357 161.051 36.3876 161.018 36.3887C160.956 36.3911 160.894 36.3928 160.831 36.393C159.796 36.3965 158.761 36.3997 157.725 36.403C157.725 36.4038 157.725 36.4053 157.725 36.4066Z" fill="#1D1D1D"/>
</g>
<path d="M148 84V82.5H137.684L132.632 73H132V83.9985L148 84Z" fill="#1D1D1D"/>
<path d="M158 84V82.5H168.316L173.368 73H174V83.9985L158 84Z" fill="#1D1D1D"/>
<defs>
<clipPath id="clip0_2001_49">
<rect width="33.2613" height="60" fill="white" transform="translate(136.369 24)"/>
</clipPath>
</defs>
</svg>
