<svg width="20" height="20" viewBox="0 0 20 20" fill="none" xmlns="http://www.w3.org/2000/svg">
<g clip-path="url(#clip0_2001_304)">
<path d="M2.47977 7.23323L2.98405 7.57123L2.47977 7.23324C2.43184 7.30474 2.37325 7.37497 2.19119 7.58861C2.17203 7.61109 2.15315 7.63323 2.13453 7.65506C1.75478 8.10032 1.48709 8.41419 1.32377 8.75589C0.947618 9.54288 0.947618 10.4578 1.32377 11.2448C1.48709 11.5865 1.75478 11.9003 2.13454 12.3456C2.15315 12.3674 2.17203 12.3896 2.19119 12.412C2.37323 12.6257 2.43184 12.6959 2.47977 12.7674C2.60024 12.9472 2.68385 13.149 2.72576 13.3613C2.74243 13.4458 2.75066 13.5368 2.77299 13.8166C2.77534 13.8461 2.77764 13.8751 2.77992 13.9037C2.82624 14.4871 2.8589 14.8983 2.98503 15.2554C3.27553 16.0779 3.92246 16.7248 4.74492 17.0153C5.10203 17.1414 5.51326 17.1741 6.09664 17.2204C6.12524 17.2227 6.15424 17.225 6.18367 17.2273C6.46347 17.2497 6.55456 17.2579 6.63902 17.2746C6.8513 17.3165 7.05316 17.4001 7.2329 17.5205C7.30441 17.5685 7.37464 17.6271 7.58827 17.8091C7.61074 17.8283 7.63287 17.8471 7.65468 17.8658C8.09997 18.2455 8.41385 18.5132 8.75555 18.6765C9.54254 19.0527 10.4574 19.0527 11.2444 18.6765C11.5861 18.5132 11.9 18.2455 12.3453 17.8658C12.3671 17.8471 12.3892 17.8283 12.4117 17.8091C12.6253 17.6271 12.6956 17.5685 12.7671 17.5205C12.9468 17.4001 13.1487 17.3165 13.361 17.2746C13.4454 17.2579 13.5365 17.2497 13.8163 17.2273C13.8457 17.225 13.8747 17.2227 13.9033 17.2204C14.4867 17.1741 14.8979 17.1414 15.2551 17.0153C16.0775 16.7248 16.7244 16.0779 17.015 15.2554C17.1411 14.8983 17.1737 14.4871 17.2201 13.9037C17.2223 13.8751 17.2246 13.8461 17.227 13.8166C17.2493 13.5368 17.2575 13.4458 17.2742 13.3613C17.3161 13.149 17.3997 12.9472 17.5202 12.7674C17.5681 12.6959 17.6267 12.6257 17.8088 12.412C17.8279 12.3896 17.8468 12.3674 17.8654 12.3456C18.2452 11.9003 18.5129 11.5865 18.6762 11.2448C19.0524 10.4578 19.0524 9.54288 18.6762 8.75589C18.5129 8.41418 18.2452 8.10031 17.8654 7.65502C17.8468 7.6332 17.8279 7.61107 17.8088 7.58861C17.6267 7.37497 17.5681 7.30474 17.5202 7.23323C17.3997 7.05349 17.3161 6.85164 17.2742 6.63935C17.2575 6.5549 17.2493 6.46381 17.227 6.18401C17.2246 6.15458 17.2223 6.12557 17.2201 6.09698C17.1737 5.51359 17.1411 5.10237 17.015 4.74526C16.7244 3.9228 16.0775 3.27587 15.2551 2.98536C14.898 2.85923 14.4867 2.82658 13.9034 2.78025C13.8748 2.77798 13.8457 2.77568 13.8163 2.77333C13.5365 2.751 13.4454 2.74277 13.361 2.7261C13.1487 2.68419 12.9468 2.60057 12.7671 2.4801C12.6956 2.43217 12.6253 2.37359 12.4117 2.19152C12.3892 2.17237 12.3671 2.15349 12.3453 2.13487C11.9 1.75512 11.5861 1.48743 11.2444 1.32411C10.4574 0.947954 9.54254 0.947954 8.75555 1.32411C8.41385 1.48743 8.09998 1.75512 7.65471 2.13488C7.63288 2.15349 7.61075 2.17237 7.58827 2.19152C7.37464 2.37358 7.30441 2.43218 7.2329 2.4801L7.57755 2.99431L7.2329 2.4801C7.05316 2.60057 6.8513 2.68419 6.63902 2.7261C6.55456 2.74277 6.46348 2.751 6.18367 2.77333C6.15423 2.77568 6.12522 2.77798 6.09662 2.78025C5.51325 2.82658 5.10203 2.85923 4.74492 2.98536C3.92246 3.27587 3.27553 3.9228 2.98503 4.74526C2.8589 5.10236 2.82624 5.51358 2.77991 6.09696C2.77764 6.12556 2.77534 6.15457 2.77299 6.18401C2.75066 6.46381 2.74243 6.5549 2.72576 6.63935C2.68385 6.85164 2.60024 7.05349 2.47977 7.23323ZM8.2016 11.7443L8.64355 12.1862L9.08549 11.7443L13.1274 7.7024C13.1481 7.68162 13.1818 7.68162 13.2026 7.7024C13.2234 7.72319 13.2234 7.75688 13.2026 7.77766L8.68118 12.2991C8.66039 12.3199 8.6267 12.3199 8.60592 12.2991L6.79734 10.4905C6.77656 10.4697 6.77656 10.4361 6.79734 10.4153C6.81812 10.3945 6.85182 10.3945 6.8726 10.4153L8.2016 11.7443Z" stroke="#B3C4DB" stroke-width="1.25"/>
</g>
<defs>
<clipPath id="clip0_2001_304">
<rect width="20" height="20" fill="white"/>
</clipPath>
</defs>
</svg>
