<svg width="80" height="80" viewBox="0 0 80 80" fill="none" xmlns="http://www.w3.org/2000/svg">
<g clip-path="url(#clip0_189_4645)">
<path d="M38.9286 44.4933H41.4397C42.4442 44.4933 42.9766 43.9408 42.9766 42.9565V29.4263L44.5033 43.1775C44.6038 44.1618 45.1864 44.6641 46.1808 44.5435L49.3248 44.1217C50.3192 44.0011 50.7812 43.4185 50.6808 42.4342L48.8929 26.2723C48.7924 25.2879 48.2098 24.7857 47.2154 24.9062L44.0614 25.3281C43.5692 25.3783 43.2076 25.5592 42.9766 25.8404V23.7009C42.9766 22.7165 42.4442 22.1641 41.4397 22.1641H38.9286C37.9342 22.1641 37.4018 22.7165 37.4018 23.7009V42.9565C37.4018 43.9408 37.9342 44.4933 38.9286 44.4933ZM24.8259 44.4933H26.4933C27.4978 44.4933 28.0301 43.9408 28.0301 42.9565V26.5335C28.0301 25.5491 27.4978 24.9967 26.4933 24.9967H24.8259C23.8214 24.9967 23.2891 25.5491 23.2891 26.5335V42.9565C23.2891 43.9408 23.8214 44.4933 24.8259 44.4933ZM30.7522 44.4933H34.6696C35.6741 44.4933 36.2065 43.9408 36.2065 42.9565V30.0993C36.2065 29.115 35.6741 28.5725 34.6696 28.5725H30.7522C29.7578 28.5725 29.2254 29.115 29.2254 30.0993V42.9565C29.2254 43.9408 29.7578 44.4933 30.7522 44.4933ZM31.5458 32.3292C31.154 32.3292 30.8627 32.0279 30.8627 31.6462C30.8627 31.2746 31.154 30.9833 31.5458 30.9833H33.9062C34.2879 30.9833 34.5792 31.2746 34.5792 31.6462C34.5792 32.0279 34.2879 32.3292 33.9062 32.3292H31.5458ZM31.5458 42.0826C31.154 42.0826 30.8627 41.7913 30.8627 41.4096C30.8627 41.0279 31.154 40.7366 31.5458 40.7366H33.9062C34.2879 40.7366 34.5792 41.0279 34.5792 41.4096C34.5792 41.7913 34.2879 42.0826 33.9062 42.0826H31.5458Z" fill="#A4A9B0"/>
<path fill-rule="evenodd" clip-rule="evenodd" d="M62.4981 36.1656C61.632 43.1352 57.9955 49.4706 52.3886 53.7782C46.7816 58.0858 39.6636 60.0127 32.6003 59.1349C25.537 58.2572 19.1071 54.6467 14.725 49.0978C10.343 43.5489 8.36772 36.5161 9.23383 29.5465C10.0999 22.5769 13.7364 16.2414 19.3434 11.9339C24.9503 7.62627 32.0683 5.6994 39.1316 6.57715C46.1949 7.4549 52.6248 11.0654 57.0069 16.6143C61.389 22.1632 63.3642 29.196 62.4981 36.1656ZM56.4141 58.4405C49.7645 63.6297 41.3374 66.085 32.8825 65.2966C24.4276 64.5081 16.5944 60.5365 11.0095 54.2063C5.42455 47.8762 2.51691 39.6738 2.89029 31.3024C3.26367 22.9309 6.88938 15.0335 13.0146 9.25002C19.1398 3.46649 27.294 0.241153 35.784 0.243698C44.2739 0.246243 52.4475 3.47647 58.6074 9.26368C64.7674 15.0509 68.4406 22.9504 68.8642 31.3221C69.2879 39.6938 66.4295 47.8944 60.8826 54.2213L78.3433 72.7785C79.516 74.0248 79.4435 75.9893 78.1821 77.1459C76.9437 78.2815 75.0226 78.2107 73.8709 76.9872L56.4141 58.4405Z" fill="#A4A9B0" stroke="#EAEEF4" stroke-width="2"/>
</g>
<defs>
<clipPath id="clip0_189_4645">
<rect width="80" height="80" fill="white"/>
</clipPath>
</defs>
</svg>
